<?xml version="1.0" encoding="UTF-8"?>
<svg id="_03_ICONS" data-name="03_ICONS" xmlns="http://www.w3.org/2000/svg" viewBox="0 0 48 48">
  <defs>
    <style>
      .cls-1 {
        stroke: #7fa26b;
        stroke-width: .45px;
      }

      .cls-1, .cls-2, .cls-3, .cls-4, .cls-5, .cls-6 {
        stroke-linecap: round;
        stroke-linejoin: round;
      }

      .cls-1, .cls-2, .cls-3, .cls-5, .cls-6 {
        fill: none;
      }

      .cls-2 {
        stroke: #f2c94c;
        stroke-width: .17px;
      }

      .cls-3, .cls-4 {
        stroke: #231815;
      }

      .cls-3, .cls-4, .cls-6 {
        stroke-width: 1.07px;
      }

      .cls-4 {
        fill: #f7f4ed;
      }

      .cls-5 {
        stroke: #caa944;
        stroke-width: .41px;
      }

      .cls-7 {
        fill: #5a5a5a;
        opacity: .5;
      }

      .cls-6 {
        stroke: #2d4a3a;
      }
    </style>
  </defs>
  <g>
    <polygon class="cls-4" points="16.44 22.31 6.45 5.57 41.55 5.57 32.02 22.08 16.44 22.31"/>
    <g>
      <path class="cls-1" d="M16.46,5.7s.17-.1.17-.1c.01.02.25.82.26.84.02.04,1.44-.87,1.46-.84.03.05-.9,1.82-.87,1.86.05.08,3.16-1.95,3.22-1.86s-2.68,2.79-2.63,2.88c.08.14,4.92-3,4.99-2.88.07.12-4.51,3.72-4.43,3.85.11.18,6.58-4.01,6.67-3.85.09.15-6.21,4.65-6.12,4.81.11.19,8.2-5.02,8.33-4.81.1.18-7.99,5.39-7.89,5.57.12.21,9.53-5.78,9.65-5.57.16.28-9.39,6.02-9.24,6.28s10.73-6.55,10.88-6.28c.14.24-10.67,6.65-10.53,6.89s10.69-6.56,10.86-6.27-10.33,7.19-10.2,7.41c.11.19,8.75-5.37,8.88-5.13.11.2-8.52,5.75-8.38,6.01.1.17,7.27-4.42,7.37-4.25.11.19-6.81,5.22-6.71,5.4.08.14,5.3-3.26,5.39-3.11s-4.93,3.89-4.85,4.04c.05.09,3.72-2.28,3.78-2.18.06.11-3.21,3.15-3.17,3.23.03.05,1.93-1.17,1.95-1.13.04.06-1.45,1.99-1.41,2.05,0,0,.34-.21.34-.2"/>
      <polygon class="cls-6" points="24 18.83 16.35 5.57 31.65 5.57 24 18.83"/>
    </g>
  </g>
  <g>
    <circle class="cls-3" cx="24" cy="30.8" r="6.28"/>
    <path class="cls-4" d="M24,19.18c-6.42,0-11.63,5.2-11.63,11.63s5.2,11.63,11.63,11.63,11.63-5.2,11.63-11.63-5.2-11.63-11.63-11.63ZM24,37.08c-3.47,0-6.28-2.81-6.28-6.28s2.81-6.28,6.28-6.28,6.28,2.81,6.28,6.28-2.81,6.28-6.28,6.28Z"/>
    <circle class="cls-7" cx="24" cy="30.88" r="5.81"/>
    <g>
      <g>
        <path class="cls-2" d="M24.01,33.68c.04.08,3.15-1.93,3.2-1.85.04.07-2.91,2.02-2.87,2.09.04.06,2.85-1.72,2.89-1.67.04.07-2.6,1.83-2.56,1.91s2.54-1.55,2.58-1.49c.04.07-2.29,1.66-2.25,1.73.03.05,2.24-1.37,2.27-1.31.04.06-1.98,1.5-1.95,1.55.03.06,1.94-1.18,1.97-1.14s-1.74,1.28-1.71,1.32,1.71-1.04,1.73-1c.02.04-1.58,1.08-1.56,1.12.02.04,1.55-.95,1.57-.91.02.04-1.26,1.11-1.23,1.15.02.03,1.24-.75,1.25-.72.01.03-1.06.85-1.04.88s1.04-.64,1.06-.61c.02.03-.91.7-.9.72.01.02.9-.54.91-.52,0,.02-.63.72-.62.74,0,.01.62-.38.63-.37,0,.01-.36.56-.35.57,0,0,.36-.22.37-.21,0,0-.02.46-.02.47,0,0,.04-.02.04-.02"/>
        <path class="cls-2" d="M17.83,29.01s.08-.05.08-.05c0,0,.18.24.19.25,0,.02.63-.39.64-.37s-.35.58-.34.6c.02.04,1.27-.77,1.29-.74.02.03-1.04.92-1.03.94.03.05,1.81-1.12,1.84-1.06.03.05-1.46,1.33-1.44,1.37.04.08,2.67-1.63,2.71-1.57.04.06-2.36,1.8-2.32,1.86.08.14,5.69-3.51,5.79-3.34.09.16-5.46,3.52-5.38,3.66s5.5-3.39,5.6-3.23c.07.11-5.43,3.27-5.33,3.43.09.15,5.4-3.28,5.47-3.16.09.16-5.11,3.36-5.03,3.49.09.15,5.2-3.15,5.27-3.04.08.15-5.03,3.15-4.96,3.27.08.13,5.06-3.07,5.12-2.96.08.14-4.88,3.08-4.82,3.18.08.13,5.02-3.08,5.1-2.95s-5.09,3.16-5.02,3.29,5.42-3.3,5.5-3.17c.08.15-5.64,3.37-5.56,3.51s5.84-3.58,5.93-3.42c.08.13-6.08,3.68-6,3.81.1.18,6.34-3.86,6.43-3.71.11.19-6.57,3.82-6.48,3.98.12.2,6.68-4.07,6.77-3.91.1.17-6.95,4.09-6.84,4.28.08.15,7.13-4.38,7.25-4.18s-7.44,4.44-7.33,4.63,7.71-4.71,7.82-4.52c.14.24-8.03,4.63-7.89,4.87s8.16-4.97,8.27-4.78c.15.26-8.53,5.13-8.39,5.38.12.21,8.92-5.46,9.05-5.23.12.21-9.33,5.6-9.17,5.87.11.18,7.94-4.84,8.05-4.65.14.25-8.23,4.66-8.1,4.89.12.21,7.03-4.32,7.15-4.13.1.17-7.34,4.3-7.22,4.51,0,.02.53-.32.54-.31"/>
        <path class="cls-2" d="M23.96,24.53s.05-.03.06-.03c0,0-.26.4-.25.41,0,0,.35-.22.36-.21.01.02-.64.72-.63.74,0,.02.77-.47.78-.45.02.03-.99.81-.98.83.02.03,1.07-.65,1.08-.63.02.04-1.3.97-1.28,1.01.02.04,1.37-.84,1.39-.8.02.04-1.65,1.21-1.62,1.26s1.72-1.06,1.75-1.01-2.14,1.65-2.11,1.71c.03.05,2.27-1.38,2.3-1.33.03.06-2.52,1.63-2.49,1.69s2.56-1.55,2.59-1.5c.05.08-2.92,1.96-2.87,2.04.05.09,2.98-1.82,3.02-1.74"/>
      </g>
      <polygon class="cls-5" points="17.72 28.97 21.28 31.67 20.44 36.04 23.99 33.67 27.44 36.22 27.24 31.81 30.17 29.48 26.1 28.53 24 24.4 21.97 28.34 17.72 28.97"/>
    </g>
  </g>
</svg>