<?xml version="1.0" encoding="UTF-8"?>
<svg id="_03_ICONS" data-name="03_ICONS" xmlns="http://www.w3.org/2000/svg" viewBox="0 0 48 48">
  <defs>
    <style>
      .cls-1 {
        stroke: #38423c;
        stroke-width: .56px;
      }

      .cls-1, .cls-2 {
        fill: none;
        stroke-linecap: round;
        stroke-linejoin: round;
      }

      .cls-2 {
        stroke: #182f23;
        stroke-width: 1.2px;
      }
    </style>
  </defs>
  <g>
    <path class="cls-1" d="M7.04,28.67s.27-.16.27-.16c.02.03-.55,1.36-.53,1.39.03.05,1.96-1.2,1.99-1.15.04.07-2.13,2.46-2.08,2.53.06.1,3.81-2.33,3.87-2.23.06.11-3.87,3-3.81,3.1.07.13,4.95-3.02,5.02-2.9.08.14-4.65,4.31-4.57,4.45.1.17,6.81-4.16,6.91-3.99s-6.25,4.85-6.15,5.02c.09.15,6.11-3.73,6.19-3.58.08.15-5.3,4.09-5.22,4.23.07.13,5.03-3.07,5.1-2.94.07.12-4.43,3.1-4.36,3.21.06.1,4.13-2.53,4.19-2.42.04.07-2.36,2.47-2.31,2.55.02.04,1.46-.89,1.48-.86"/>
    <path class="cls-1" d="M23.1,35.11s.4-.24.4-.23c.03.06-1.66,1.97-1.63,2.03.04.06,2.47-1.51,2.51-1.45.06.1-3.27,3.09-3.22,3.19.06.11,4.23-2.59,4.29-2.48.07.12-4.48,3.33-4.41,3.45.07.13,5.06-3.09,5.14-2.97.08.14-4.73,4.36-4.65,4.5.09.15,6.03-3.68,6.12-3.53s-5.17,4.26-5.09,4.4c.09.16,6.18-3.78,6.27-3.62.08.14-5.11,3.98-5.03,4.12.07.13,5.12-3.13,5.19-3,.07.11-4.3,3.03-4.23,3.14.05.09,3.54-2.16,3.59-2.07"/>
    <path class="cls-1" d="M32.11,16.97s1.96-1.2,1.99-1.15c.06.1-3.66,3.06-3.6,3.17.08.14,5.47-3.35,5.55-3.21.1.18-6.63,4.92-6.53,5.1.11.2,7.83-4.79,7.95-4.59.13.22-8.57,5.55-8.44,5.77s9.09-5.55,9.22-5.32c.16.27-10.12,7.29-9.96,7.56s11.14-6.81,11.3-6.52c.18.31-11.94,7.94-11.76,8.25s12.41-7.58,12.59-7.27c.2.34-13.17,8.37-12.97,8.71s13.27-8.11,13.47-7.78c.2.35-14.06,8.34-13.86,8.7s13.85-8.47,14.05-8.11c.23.39-15.32,9.54-15.1,9.93s15.05-9.2,15.28-8.82-15.66,9.79-15.43,10.19,15.15-9.26,15.37-8.88-14.66,9.11-14.44,9.49c.2.35,13.93-8.51,14.14-8.16s-12.79,8.83-12.59,9.17c.17.29,11.33-6.93,11.5-6.64s-10.58,7.07-10.42,7.34c.13.23,8.96-5.48,9.09-5.25s-8.4,5.56-8.27,5.78c.1.17,6.78-4.14,6.87-3.97s-6.27,4.26-6.17,4.43c.07.12,4.55-2.78,4.61-2.66.06.11-4.02,2.98-3.95,3.09.03.05,2.02-1.23,2.05-1.18"/>
    <path class="cls-1" d="M12.66,6.68c.03.05,1.99-1.22,2.02-1.17.06.1-3.69,3.08-3.63,3.19.08.14,5.63-3.44,5.71-3.3.11.18-6.76,4.99-6.65,5.17.12.2,8.07-4.93,8.19-4.73.13.23-8.78,5.67-8.65,5.89.14.24,9.37-5.73,9.51-5.49.16.28-10.36,7.42-10.2,7.7.17.29,11.53-7.05,11.7-6.75.18.32-12.3,8.14-12.12,8.46s12.94-7.91,13.13-7.58c.2.35-13.61,8.61-13.41,8.96s13.89-8.49,14.09-8.14-14.44,8.55-14.23,8.91,14.33-8.76,14.54-8.4c.22.38-14.98,9.35-14.75,9.73s14.93-9.13,15.15-8.75c.23.4-15.57,9.74-15.34,10.14s15.3-9.35,15.52-8.96-15.89,9.78-15.66,10.19,15.35-9.38,15.57-8.99c.24.42-15.97,10.57-15.73,10.98.22.37,14.72-8.99,14.93-8.62s-14.21,9.04-14,9.41c.18.32,12.57-7.68,12.75-7.36.17.3-11.73,7.37-11.55,7.67.15.25,9.97-6.09,10.12-5.84.14.24-9.22,5.87-9.09,6.11.11.19,7.46-4.56,7.57-4.37.1.17-6.7,4.45-6.6,4.62.09.15,5.84-3.57,5.92-3.42.07.12-4.28,3.74-4.21,3.86.05.09,3.58-2.19,3.64-2.1.04.07-2.24,2.4-2.2,2.47.02.04,1.63-.99,1.65-.95.02.03-.69,1.18-.67,1.21,0,0,.24-.15.25-.14"/>
  </g>
  <g>
    <path class="cls-2" d="M7.07,28.44l7.05,1.17s.88,7.19-4.11,6.17-2.94-7.34-2.94-7.34Z"/>
    <path class="cls-2" d="M23.37,34.75l6.02,3.96s-1.91,5.58-6.46,3.52.44-7.49.44-7.49Z"/>
    <path class="cls-2" d="M25.28,31.23l6.75,4.4s14.87-12.23,7.05-18.35-11.01,7.63-11.45,9.54-2.35,4.4-2.35,4.4Z"/>
    <path class="cls-2" d="M7.36,24.33l8.51,2.2s.93-2.15,1.76-4.99c.38-1.28,11.37-9.93,1.61-15.27C8.25.25,7.36,24.33,7.36,24.33Z"/>
  </g>
</svg>